<svg width="1476" height="807" xmlns="http://www.w3.org/2000/svg" xmlns:xlink="http://www.w3.org/1999/xlink" overflow="hidden"><defs><clipPath id="clip0"><rect x="-308" y="1981" width="1476" height="807"/></clipPath><clipPath id="clip1"><rect x="-308" y="1982" width="1476" height="805"/></clipPath><clipPath id="clip2"><rect x="-308" y="1982" width="1476" height="805"/></clipPath></defs><g clip-path="url(#clip0)" transform="translate(308 -1981)"><g clip-path="url(#clip1)"><g clip-path="url(#clip2)"><path d="M-4.2213 778.49C33.3414 780.782 81.2536 762.082 127.127 764.703 173 767.324 236.541 794.037 271.017 794.224 305.492 794.407 292.036 783.962 333.983 765.818 375.925 747.671 474.997 713.375 522.686 685.352 570.375 657.328 586.2 633.187 620.117 597.678 654.037 562.169 729.234 510.273 726.191 472.299 723.145 434.325 656.848 372.427 601.857 369.837 546.867 367.249 502.104 406.286 396.247 456.764 290.388 507.24 49.1198 623.661-33.2962 672.691-115.713 721.725-103.887 733.294-98.2493 750.958-92.6122 768.623-41.784 776.199-4.2213 778.49Z" fill="#D14565" fill-rule="evenodd" fill-opacity="1" transform="matrix(1 0 0 1.00031 -223.522 2094.37)"/><path d="M1135.17 492.188C1124.23 482.39 1095.63 454.397 1096.47 441.801 1097.31 429.202 1123.68 425.563 1140.22 416.606 1156.77 407.646 1181.45 383.013 1195.75 388.051 1210.05 393.091 1224.08 428.362 1226.04 446.839 1228 465.316 1218.19 489.948 1207.53 498.909 1196.87 507.866 1174.15 501.988 1162.1 500.586 1150.04 499.187 1146.11 501.988 1135.17 492.188Z" fill="#FF8A80" fill-rule="evenodd" fill-opacity="1" transform="matrix(1 0 0 1.00031 -223.522 2094.37)"/><path d="M1008.12-80.7037C990.467-44.2855 985.145 55.1645 1004.76 97.4657 1024.37 139.767 1098.33 145.37 1125.78 173.104 1153.24 200.837 1147.36 247.621 1169.49 263.869 1191.62 280.117 1227.76 258.826 1258.58 270.592 1289.4 282.358 1334.23 332.782 1354.4 334.465 1374.57 336.146 1361.96 303.369 1379.61 280.677 1397.26 257.986 1459.46 235.855 1460.3 198.316 1461.14 160.777 1394.18 105.59 1384.66 55.4446 1375.13 5.29948 1448.81-73.1397 1403.15-102.554 1357.48-131.969 1176.21-124.125 1110.66-121.044 1045.1-117.962 1025.77-117.122 1008.12-80.7037Z" fill="#FFA06D" fill-rule="evenodd" fill-opacity="1" transform="matrix(1 0 0 1.00031 -223.522 2094.37)"/><path d="M-99.0782 604.983C-94.319 557.929-144.71 514.795-110.836 455.42-76.9619 396.043 29.4201 289.613 104.168 248.721 178.915 207.83 280.258 192.426 337.649 210.071 395.038 227.716 435.071 297.175 448.51 354.592 461.946 412.008 460.828 489.588 418.274 554.568 375.721 619.546 259.821 702.729 193.193 744.46 126.564 786.192 73.9328 806.077 18.502 804.956-36.9287 803.838-119.795 771.907-139.391 737.739-158.988 703.569-103.837 652.033-99.0782 604.983Z" fill="#9B003B" fill-rule="evenodd" fill-opacity="1" transform="matrix(1 0 0 1.00031 -223.522 2094.37)"/><path d="M520.905-36.8391C509.122-26.4981 499.868 14.8667 507.441 28.5618 515.015 42.257 551.477 47.5672 566.343 45.3312 581.211 43.0953 594.675 28.2823 596.636 15.1462 598.601 2.01011 591.308-25.3801 578.126-33.4853 564.94-41.5906 532.685-47.1804 520.905-36.8391Z" fill="#FF844C" fill-rule="evenodd" fill-opacity="1" transform="matrix(1 0 0 1.00031 -223.522 2094.37)"/><path d="M816.107 668.692C812.468 674.014 811.35 690.545 816.107 695.589 820.867 700.633 838.503 702.594 844.659 698.953 850.818 695.311 854.179 679.62 853.058 673.736 851.939 667.852 843.541 663.93 837.941 663.648 832.344 663.367 819.746 663.367 816.107 668.692Z" fill="#F9EEEE" fill-rule="evenodd" fill-opacity="1" transform="matrix(1 0 0 1.00031 -223.522 2094.37)"/><path d="M141.353 26.7388C135.473 24.0956 119.012 25.9125 114.892 31.4892 110.772 37.0655 111.96 54.7771 116.632 60.198 121.304 65.6188 137.333 66.1556 142.924 64.0137 148.514 61.8721 150.889 52.9102 150.175 47.3479 149.461 41.7856 147.234 29.3819 141.353 26.7388Z" fill="#C6BCBC" fill-rule="evenodd" fill-opacity="1" transform="matrix(1 0 0 1.00031 -223.522 2094.37)"/></g></g></g></svg>